<svg xmlns="http://www.w3.org/2000/svg" width="10" height="23" viewBox="0 0 10 23">
  <defs>
    <style>
      .cls-1 {
        fill: #fff;
        fill-rule: evenodd;
      }
    </style>
  </defs>
  <path id="arrow_right" data-name="arrow right" class="cls-1" d="M949.555,447.866l-7.548-9.443a0.973,0.973,0,0,0-1.725.24,2.539,2.539,0,0,0,.163,2.6l7.548,9.443a0.973,0.973,0,0,0,1.725-.24A2.539,2.539,0,0,0,949.555,447.866Zm-0.1,3.1-7.387,9.605a0.938,0.938,0,0,1-1.688-.244,2.669,2.669,0,0,1,.159-2.645l7.387-9.6a0.937,0.937,0,0,1,1.688.243A2.669,2.669,0,0,1,949.458,450.965Z" transform="translate(-940 -438)"/>
</svg>
